#!OML:ASF F:\VICON\USERDATA\INSTALL\rory3\rory3.ASF
:FULLY-SPECIFIED
:DEGREES
61
root 1.02875 17.8382 -15.9637 5.39782 -4.63844 0.16642
lowerback 6.24798 -0.044677 -1.36783
upperback 0.258428 -0.0761699 2.43421
thorax -3.23337 -0.000805704 3.29389
lowerneck -15.3687 -3.4049 -9.90669
upperneck 28.5722 -3.05606 3.22445
head 12.2009 -2.03611 2.45099
rclavicle 1.0635e-014 7.15625e-015
rhumerus -32.5508 -9.8079 -78.6584
rradius 35.3563
rwrist 2.56728
rhand -12.3274 13.3049
rfingers 7.12502
rthumb 13.7414 -16.2214
lclavicle 1.0635e-014 7.15625e-015
lhumerus -34.0164 12.5573 83.3426
lradius 28.6945
lwrist -2.85335
lhand -19.8781 23.1654
lfingers 7.12502
lthumb 6.45747 53.047
rfemur -11.8585 5.4559 21.3462
rtibia 20.8871
rfoot -9.86098 -8.45361
rtoes 2.38387
lfemur -12.9302 -2.96845 -21.7992
ltibia 21.5798
lfoot -10.4386 6.93296
ltoes 0.436306
62
root 1.01955 17.8395 -15.9621 5.43328 -4.69384 0.184491
lowerback 6.26242 -0.0477456 -1.39045
upperback 0.208331 -0.0820509 2.4097
thorax -3.29291 -0.00222699 3.28221
lowerneck -15.3918 -3.37183 -10.003
upperneck 28.5873 -3.00603 3.31581
head 12.2111 -2.01295 2.50993
rclavicle 8.44835e-015 1.03368e-014
rhumerus -32.616 -9.59215 -78.7671
rradius 35.4
rwrist 2.4122
rhand -12.2203 12.8969
rfingers 7.12502
rthumb 13.8447 -16.6224
lclavicle 8.44835e-015 1.03368e-014
lhumerus -34.114 12.6571 83.2893
lradius 29.1612
lwrist -3.57122
lhand -18.3051 25.7691
lfingers 7.12502
lthumb 7.97592 55.5986
rfemur -11.8824 5.56151 21.351
rtibia 20.8749
rfoot -9.77377 -8.41843
rtoes 3.39579
lfemur -12.9373 -2.98734 -21.7732
ltibia 21.5341
lfoot -10.4386 6.99814
ltoes 0.672077
63
root 1.01164 17.8418 -15.9633 5.44035 -4.61767 0.263221
lowerback 6.3366 -0.0882655 -1.45846
upperback 0.166673 -0.141027 2.39758
thorax -3.37359 -0.0290489 3.3144
lowerneck -15.6846 -3.44916 -10.2865
upperneck 28.8896 -3.08982 3.59265
head 12.4107 -2.05069 2.65364
rclavicle 2.68359e-015 1.59028e-014
rhumerus -32.723 -9.34714 -78.8095
rradius 35.5031
rwrist 2.17801
rhand -12.08 12.9609
rfingers 7.12502
rthumb 13.9799 -16.5491
lclavicle 2.68359e-015 1.59028e-014
lhumerus -34.191 13.0874 83.1446
lradius 29.1505
lwrist -4.03266
lhand -18.2491 25.4241
lfingers 7.12502
lthumb 8.02988 55.2516
rfemur -11.8801 5.52816 21.2979
rtibia 20.858
rfoot -9.69692 -8.44536
rtoes 3.50111
lfemur -12.907 -3.00522 -21.8144
ltibia 21.456
lfoot -10.4606 6.89822
ltoes 0.819143
64
root 1.00741 17.8443 -15.9632 5.46527 -4.45932 0.319951
lowerback 6.37989 -0.152138 -1.48128
upperback 0.10751 -0.226831 2.40834
thorax -3.45319 -0.0695196 3.34732
lowerneck -15.8167 -3.51466 -10.5318
upperneck 29.1013 -3.17029 3.81973
head 12.5403 -2.08832 2.77297
rclavicle 1.03368e-014 -4.77083e-015
rhumerus -32.91 -9.17946 -78.7687
rradius 35.574
rwrist 2.06856
rhand -11.9502 13.4031
rfingers 7.12502
rthumb 14.105 -16.0982
lclavicle 1.03368e-014 -4.77083e-015
lhumerus -34.1707 13.4984 83.0093
lradius 28.6522
lwrist -4.02523
lhand -19.0808 23.6605
lfingers 7.12502
lthumb 7.22711 53.5171
rfemur -11.884 5.34592 21.2611
rtibia 20.8252
rfoot -9.51679 -8.46319
rtoes 2.93246
lfemur -12.8977 -3.08658 -21.8504
ltibia 21.3617
lfoot -10.4051 6.80957
ltoes 0.735278
65
root 1.00453 17.8458 -15.9547 5.51834 -4.33655 0.358497
lowerback 6.30464 -0.207482 -1.45001
upperback 0.018239 -0.297376 2.3955
thorax -3.49872 -0.103604 3.32274
lowerneck -15.3343 -3.22953 -10.2898
upperneck 28.6161 -2.77792 3.48991
head 12.2008 -1.92166 2.66092
rclavicle -3.50855e-014 3.97569e-015
rhumerus -33.2104 -9.07069 -78.7369
rradius 35.6306
rwrist 2.13075
rhand -11.9647 13.8221
rfingers 7.12502
rthumb 14.0911 -15.6801
lclavicle -3.50855e-014 3.97569e-015
lhumerus -34.2305 13.6736 82.9048
lradius 28.2787
lwrist -3.99798
lhand -19.5935 22.4375
lfingers 7.12502
lthumb 6.73221 52.3105
rfemur -11.8546 5.18094 21.2263
rtibia 20.7364
rfoot -9.38259 -8.37686
rtoes 2.79929
lfemur -12.8928 -3.17758 -21.8837
ltibia 21.2855
lfoot -10.3401 6.75206
ltoes 0.78459
66
root 1.00032 17.8443 -15.9452 5.4912 -4.32485 0.39615
lowerback 6.19977 -0.198806 -1.45603
upperback 0.0524726 -0.286981 2.37701
thorax -3.40509 -0.100143 3.30443
lowerneck -15.7174 -3.47042 -10.6556
upperneck 29.1073 -3.10486 3.89463
head 12.5204 -2.06443 2.83413
rclavicle 3.18055e-015 1.66979e-014
rhumerus -33.3299 -9.02436 -78.7338
rradius 35.7712
rwrist 2.12286
rhand -11.9694 13.6567
rfingers 7.12502
rthumb 14.0865 -15.8459
lclavicle 3.18055e-015 1.66979e-014
lhumerus -34.1517 13.6357 82.9512
lradius 28.1394
lwrist -4.08866
lhand -19.808 22.2104
lfingers 7.12502
lthumb 6.52514 52.0899
rfemur -11.7542 5.057 21.1954
rtibia 20.6313
rfoot -9.2628 -8.22144
rtoes 2.96237
lfemur -12.8027 -3.16223 -21.9299
ltibia 21.2265
lfoot -10.2489 6.71703
ltoes 0.891404
